<svg xmlns="http://www.w3.org/2000/svg" xmlns:xlink="http://www.w3.org/1999/xlink" version="1.1" id="Layer_1" x="0px" y="0px" width="117.25px" height="25.25px" viewBox="0 0 117.25 25.25" enable-background="new 0 0 117.25 25.25" xml:space="preserve"><style>.style0{fill:	#304f7c;}.style1{fill:	#6C854E;}</style><g><path d="M3.037 18.606c1.692 1.58 3.96 2.66 6.16 2.664c2.627 0 4.104-1.188 4.104-3.023 c0-1.944-1.512-2.556-3.672-3.456L6.42 13.387c-2.339-0.972-4.751-2.808-4.751-6.263C1.668 3.38 4.98 0.5 9.55 0.5 c2.771 0 5.43 1.15 7.27 2.988l-2.16 2.664c-1.476-1.26-3.096-2.016-5.111-2.016C7.32 4.14 5.88 5.18 5.88 6.91 c0 1.84 1.8 2.52 3.74 3.312l3.168 1.332c2.808 1.19 4.75 2.95 4.75 6.371c0 3.815-3.167 6.983-8.459 6.98 c-3.167 0-6.227-1.26-8.458-3.456L3.037 18.606z" class="style0"/><path d="M18.839 0.932h4.175v20.014h9.948l-0.958 3.527H18.839V0.932z" class="style0"/><path d="M41.647 18.102h-7.883l-0.507 1.757l-4.081 0.014l6.172-18.941h4.896l7.667 23.541h-4.428L41.647 18.102z M40.711 14.826l-0.828-2.879c-0.72-2.484-1.439-5.184-2.124-7.775h-0.144c-0.648 2.627-1.332 5.291-2.087 7.775L34.7 14.83 H40.711z" class="style0"/><path d="M47.792 4.8h2.711l0.229 1.912h0.114c1.17-1.256 2.54-2.255 4.281-2.255c2.055 0 3.23 0.94 3.88 2.51 c1.341-1.427 2.74-2.512 4.509-2.512c2.968 0 4.34 2.03 4.34 5.565v8.79h-3.311v-8.362c0-2.312-0.685-3.167-2.141-3.167 c-0.885 0-1.855 0.571-2.939 1.741v9.789h-3.282v-8.362c0-2.312-0.685-3.167-2.169-3.167c-0.856 0-1.855 0.571-2.939 1.741v9.789 h-3.282V4.8z" class="style0"/><path d="M76.39 4.458c3.795 0 5.79 2.74 5.79 6.65c0 0.628-0.058 1.198-0.143 1.541h-8.904 c0.285 2.54 1.88 3.97 4.14 3.967c1.199 0 2.226-0.371 3.253-1.027l1.113 2.055c-1.341 0.885-3.025 1.513-4.794 1.51 c-3.881 0-6.907-2.711-6.907-7.334C69.939 7.25 73.11 4.46 76.39 4.458z M79.329 10.565c0-2.226-0.942-3.567-2.854-3.567 c-1.655 0-3.083 1.227-3.368 3.567H79.329z" class="style0"/><path d="M85.353 7.397h-1.998V4.943L85.523 4.8l0.399-3.824h2.74V4.8h3.567v2.597h-3.567v6.678 c0 1.66 0.63 2.45 1.97 2.454c0.485 0 1.056-0.143 1.456-0.313l0.571 2.426c-0.771 0.257-1.741 0.514-2.854 0.51 c-3.253 0-4.452-2.055-4.452-5.08V7.397z" class="style0"/><path d="M100.422 4.458c3.795 0 5.79 2.74 5.79 6.65c0 0.628-0.057 1.198-0.142 1.541h-8.904 c0.285 2.54 1.88 3.97 4.14 3.967c1.199 0 2.226-0.371 3.253-1.027l1.113 2.055c-1.342 0.885-3.025 1.513-4.795 1.51 c-3.881 0-6.906-2.711-6.906-7.334C93.972 7.25 97.14 4.46 100.42 4.458z M103.362 10.565c0-2.226-0.942-3.567-2.854-3.567 c-1.655 0-3.083 1.227-3.368 3.567H103.362z" class="style0"/><path d="M108.356 4.8h2.71l0.229 2.483h0.115c0.999-1.827 2.482-2.826 3.966-2.826c0.714 0 1.17 0.09 1.6 0.29 l-0.571 2.854c-0.485-0.143-0.856-0.229-1.456-0.229c-1.112 0-2.454 0.771-3.31 2.882v8.562h-3.282V4.8z" class="style0"/><path d="M113.036 24.436H49.254l-1.125-3.5h65.594L113.036 24.436z M113.094 21.469h-27.74v2.479h27.222 L113.094 21.469z" class="style1"/></g><g></g><g></g><g></g><g></g><g></g><g></g></svg>