<svg version="1.1" xmlns="http://www.w3.org/2000/svg" xmlns:xlink="http://www.w3.org/1999/xlink" x="0" y="0" width="181.42" height="181.42" viewBox="0" enable-background="new 0 0 181.417 181.417" xml:space="preserve"><path fill="#6C854E" d="M22.59 150.86v-94.19c0-6.63 4.68-11.34 11.31-11.34h113.42c6.63 0 11.34 4.68 11.34 11.31v113.45c0 6.63-4.67 11.31-11.29 11.31H33.94c-6.63 0-11.35-4.72-11.35-11.34M48.07 113.36h34c0 0 0.06-6.41 5.59-8.14 0.49-0.15 7.04-15.47 8.79-14.72s0.1 16.36 0.63 17c2.08 2.51 2.08 5.86 2.08 5.86h33.92c0 0 2.83 0.06 2.41-2.89 -2.03-9.99-11.21-42.46-44.82-42.46 -33.59 0-42.83 32.45-44.88 42.45C44.76 113.75 48.07 113.36 48.07 113.36zM101.68 150.56l8.7-1.66 0.48 2.49 7.48-1.43 0.71 3.71 2.56-0.49 -1.2-6.27 -7.48 1.43 -0.48-2.49L101.19 148c-0.37 0.07-1.24 0.11-1.45-0.98 -0.19-0.98 0.44-1.33 0.98-1.45l11.26-2.15 -0.48-2.49 7.48-1.43 -1.2-6.27 -2.56 0.49 0.71 3.71 -7.48 1.43 0.48 2.49 -8.7 1.66c-1.52 0.29-3.58 1.73-3.05 4.5C97.71 150.27 100.16 150.85 101.68 150.56zM22.59 170.27c9.41 0.49 19.59-1.22 28.48-2.95 5.74-1.13 10.92-2.56 16.63-3.87 5.57-1.27 9.02-2.29 10.88-2.75s12.5-2.47 12.75-2.62l1 4.62 42.46-8.13 -5.26-27.49 -42.46 8.13 0.87 4.55c0 0-2.13 0.49-3.11 0.57 -5.92 0.92-11.88 1.91-17.81 3.25 -2.79 0.63-5.96 1.25-8.69 1.9 -5.8 0.99-10.96 2.42-14.83 3.08s-12.08 2.55-20.9 2.32M22.59 154c-4.05-0.42-7.89-2-9.02-5.17 -2.3-6.44-0.67-12.84 3.96-17.25 1.52-1.45 2.23-2.37 2.23-2.37l0.02-15.29c0 0-0.36-0.23-4.96 2.08s-4.81 2.83-7.18 4.82c-10.61 8.24-12.01 41.44 7.76 46.12 2.34 0.56 4.86 0.68 7.3 0.81 0 0 6.37 0.49 16.94-1.44s22.89-4.84 31.94-6.81c9.44-2.37 19.23-4.05 19.23-4.05l-2.32-12.99c0 0-3.8 0.55-10.02 1.76s-7.87 2.13-17.21 3.96 -12.26 3.17-23.01 4.83S22.59 154 22.59 154zM90.12 137.26l37.34-7.15 0.47 2.42 -6.21 1.19 0.49 2.56 6.21-1.19 0.46 2.43 -6.21 1.19 0.5 2.56 6.2-1.19 0.47 2.43 -6.21 1.19 0.49 2.56 6.21-1.19 0.46 2.43 -6.21 1.19 0.49 2.56 6.21-1.19 0.46 2.42 -37.34 7.15L90.12 137.26z"/><path fill="#6C854E" d="M161.46 56.69c-0.01-8.06-5.13-14.19-14.19-14.18 -0.94 0.01-68.01 0.04-68.01 0.04V-0.04h102.08v147.35h-19.83C161.49 147.31 161.45 57.63 161.46 56.69zM111.04 25.3c1.68 1.51 3.94 2.23 5.9 2.23 3.89 0 6.1-2.35 6.1-4.99 0-2.16-1.1-3.5-3.05-4.27l-1.9-0.74c-1.42-0.55-2.3-0.82-2.3-1.56 0-0.7 0.62-1.06 1.63-1.06 1.15 0 2.06 0.38 3.12 1.13l2.06-2.59c-1.44-1.42-3.41-2.09-5.18-2.09 -3.41 0-5.81 2.18-5.81 4.85 0 2.26 1.46 3.67 3.14 4.34l1.94 0.82c1.32 0.53 2.11 0.77 2.11 1.51 0 0.7-0.53 1.1-1.78 1.1 -1.15 0-2.54-0.62-3.65-1.51L111.04 25.3zM125.54 27.24h10.03v-3.46h-5.9V11.64h-4.13V27.24zM146.18 27.24h4.37l-4.75-15.6h-4.99l-4.75 15.6h4.22l0.77-3.31h4.37L146.18 27.24zM141.78 20.74l0.26-1.08c0.38-1.49 0.77-3.36 1.1-4.94h0.1c0.38 1.56 0.77 3.46 1.15 4.95l0.26 1.08H141.78z"/><circle fill="#6C854E" cx="62.26" cy="99.19" r="5.69"/><circle fill="#6C854E" cx="90.64" cy="79.31" r="5.69"/><circle fill="#6C854E" cx="118.89" cy="99.31" r="5.69"/></svg>